<svg width="192" height="192" viewBox="0 0 192 192" fill="none" xmlns="http://www.w3.org/2000/svg">
<rect x="0.778809" y="0.104492" width="190.925" height="190.925" rx="18" fill="#0B0C0C"/>
<path fill-rule="evenodd" clip-rule="evenodd" d="M94.0121 10.5923C94.0121 10.5923 91.7734 10.6441 90.2234 12.1942C88.6735 13.7443 88.8466 16.1278 88.8466 16.1278L88.8466 68.7732C88.8466 68.7732 128.191 107.339 135.291 114.439C142.391 121.538 137.784 129.452 133.736 131.22C129.687 132.988 125.816 133.03 121.361 133.03V176.346H155.319V148.166H170.257V176.346H182.497V16.1278C182.497 16.1278 182.531 13.1477 181.239 11.8565C179.948 10.5653 177.295 10.5923 177.295 10.5923H94.0121ZM112.656 22.0415H97.9634V37.4462H112.656V22.0415ZM126.314 22.0415H141.006V37.4462H126.314V22.0415ZM141.006 46.847H126.314V62.2516H141.006V46.847ZM126.314 71.6532H141.006V87.0579H126.314V71.6532ZM170.049 22.0415H155.356V37.4462H170.049V22.0415ZM155.356 46.847H170.049V62.2516H155.356V46.847ZM170.049 71.6532H155.356V87.0579H170.049V71.6532ZM155.356 96.4594H170.049V111.864H155.356V96.4594ZM170.049 121.265H155.356V136.669H170.049V121.265Z" fill="white"/>
<path d="M68.2111 63.0566C70.941 63.0566 74.7392 67.0639 74.7392 67.0639L125.063 115.276C125.063 115.276 130.029 119.449 128.95 122.743C127.871 126.037 122.552 125.577 122.552 125.577H112.334V180.566H80.8466V142.708H57.5354V180.566H22.3947V125.577H14.3901C14.3901 125.577 8.64844 126.248 7.5861 122.743C6.52375 119.237 11.3597 115.276 11.3597 115.276L61.683 67.0639C61.683 67.0639 65.4812 63.0566 68.2111 63.0566Z" fill="white"/>
</svg>
